<?xml version="1.0" encoding="UTF-8"?>
<svg xmlns="http://www.w3.org/2000/svg" xmlns:xlink="http://www.w3.org/1999/xlink" width="327pt" height="110pt" viewBox="0 0 327 110" version="1.1">
<defs>
<clipPath id="clip1">
  <path d="M 236 10 L 302 10 L 302 46 L 236 46 Z "/>
</clipPath>
<clipPath id="clip2">
  <path d="M 325.496094 55.621094 C 325.496094 30.625 305.234375 10.363281 280.242188 10.363281 C 255.25 10.363281 234.988281 30.625 234.988281 55.621094 C 234.988281 80.613281 255.25 100.875 280.242188 100.875 C 305.234375 100.875 325.496094 80.613281 325.496094 55.621094 Z "/>
</clipPath>
<clipPath id="clip3">
  <path d="M 235 10 L 302 10 L 302 46 L 235 46 Z "/>
</clipPath>
<clipPath id="clip4">
  <path d="M 325.496094 55.621094 C 325.496094 30.625 305.234375 10.363281 280.242188 10.363281 C 255.25 10.363281 234.988281 30.625 234.988281 55.621094 C 234.988281 80.613281 255.25 100.875 280.242188 100.875 C 305.234375 100.875 325.496094 80.613281 325.496094 55.621094 Z "/>
</clipPath>
<clipPath id="clip5">
  <path d="M 258 20 L 326 20 L 326 83 L 258 83 Z "/>
</clipPath>
<clipPath id="clip6">
  <path d="M 325.496094 55.621094 C 325.496094 30.625 305.234375 10.363281 280.242188 10.363281 C 255.25 10.363281 234.988281 30.625 234.988281 55.621094 C 234.988281 80.613281 255.25 100.875 280.242188 100.875 C 305.234375 100.875 325.496094 80.613281 325.496094 55.621094 Z "/>
</clipPath>
<clipPath id="clip7">
  <path d="M 258 20 L 326 20 L 326 84 L 258 84 Z "/>
</clipPath>
<clipPath id="clip8">
  <path d="M 325.496094 55.621094 C 325.496094 30.625 305.234375 10.363281 280.242188 10.363281 C 255.25 10.363281 234.988281 30.625 234.988281 55.621094 C 234.988281 80.613281 255.25 100.875 280.242188 100.875 C 305.234375 100.875 325.496094 80.613281 325.496094 55.621094 Z "/>
</clipPath>
<clipPath id="clip9">
  <path d="M 234 52 L 322 52 L 322 101 L 234 101 Z "/>
</clipPath>
<clipPath id="clip10">
  <path d="M 325.496094 55.621094 C 325.496094 30.625 305.234375 10.363281 280.242188 10.363281 C 255.25 10.363281 234.988281 30.625 234.988281 55.621094 C 234.988281 80.613281 255.25 100.875 280.242188 100.875 C 305.234375 100.875 325.496094 80.613281 325.496094 55.621094 Z "/>
</clipPath>
<clipPath id="clip11">
  <path d="M 234 51 L 323 51 L 323 101 L 234 101 Z "/>
</clipPath>
<clipPath id="clip12">
  <path d="M 325.496094 55.621094 C 325.496094 30.625 305.234375 10.363281 280.242188 10.363281 C 255.25 10.363281 234.988281 30.625 234.988281 55.621094 C 234.988281 80.613281 255.25 100.875 280.242188 100.875 C 305.234375 100.875 325.496094 80.613281 325.496094 55.621094 Z "/>
</clipPath>
</defs>
<g id="surface1">
<path style="fill-rule:evenodd;fill:rgb(71%,91%,100%);fill-opacity:1;stroke-width:0.8;stroke-linecap:round;stroke-linejoin:round;stroke:rgb(0%,0%,0%);stroke-opacity:1;stroke-miterlimit:10;" d="M 104.518885 658.45776 C 99.143885 657.133542 93.850917 656.781979 91.823573 658.89526 C 89.796229 661.012448 91.030604 665.598385 94.468104 669.742917 C 97.90951 673.887448 103.550135 677.590573 107.780604 683.055417 C 112.014979 688.52026 114.835292 695.750729 122.241542 699.367917 C 129.647792 702.981198 141.639979 702.981198 148.339198 699.367917 C 155.042323 695.750729 156.452479 688.52026 155.921229 682.348385 C 155.393885 676.17651 152.925135 671.063229 146.75326 668.242917 C 140.581385 665.422604 130.706385 664.891354 123.03451 663.481198 C 115.366542 662.071042 109.897792 659.778073 104.518885 658.45776 Z " transform="matrix(1,0,0,-1,-78.757167,702.977292)"/>
<path style="fill-rule:evenodd;fill:rgb(100%,82.4%,61.6%);fill-opacity:1;stroke-width:0.8;stroke-linecap:round;stroke-linejoin:round;stroke:rgb(0%,0%,0%);stroke-opacity:1;stroke-miterlimit:10;" d="M 118.362635 649.199948 C 120.12826 653.430417 118.362635 658.367917 119.069667 663.129635 C 119.772792 667.891354 122.948573 672.473385 131.94076 676.000729 C 140.932948 679.528073 155.745448 681.996823 167.913417 681.996823 C 180.081385 681.996823 189.604823 679.528073 193.921229 675.20776 C 198.241542 670.887448 197.362635 664.715573 190.925135 660.571042 C 184.487635 656.42651 172.499354 654.313229 165.358729 651.48901 C 158.214198 648.668698 155.921229 645.141354 155.65951 641.000729 C 155.393885 636.856198 157.155604 632.094479 155.65951 628.039792 C 154.15951 623.981198 149.397792 620.633542 144.725917 620.192135 C 140.054042 619.750729 135.468104 622.219479 134.319667 625.571042 C 133.175135 628.918698 135.468104 633.153073 131.323573 635.356198 C 127.179042 637.559323 116.600917 637.735104 113.952479 639.586667 C 111.307948 641.438229 116.600917 644.965573 118.362635 649.199948 Z " transform="matrix(1,0,0,-1,-78.757167,702.977292)"/>
<path style="fill-rule:evenodd;fill:rgb(89.4%,100%,69%);fill-opacity:1;stroke-width:0.8;stroke-linecap:round;stroke-linejoin:round;stroke:rgb(0%,0%,0%);stroke-opacity:1;stroke-miterlimit:10;" d="M 90.764979 637.735104 C 94.733729 640.910885 96.143885 646.024167 100.639979 648.668698 C 105.136073 651.313229 112.72201 651.48901 118.893885 649.992917 C 125.06576 648.492917 129.823573 645.317135 131.323573 640.821042 C 132.823573 636.324948 131.057948 630.508542 130.089198 626.539792 C 129.120448 622.571042 128.944667 620.453854 134.233729 618.516354 C 139.522792 616.574948 150.280604 614.813229 156.011073 615.781979 C 161.741542 616.750729 162.448573 620.453854 161.214198 624.156979 C 159.979823 627.860104 156.804042 631.563229 154.069667 635.004635 C 151.339198 638.442135 149.046229 641.617917 149.839198 643.906979 C 150.632167 646.199948 154.511073 647.610104 158.304042 647.348385 C 162.093104 647.08276 165.796229 645.141354 168.796229 641.879635 C 171.792323 638.617917 174.085292 634.031979 175.40951 628.391354 C 176.729823 622.746823 177.081385 616.047604 175.233729 611.375729 C 173.382167 606.699948 169.323573 604.055417 162.800135 600.883542 C 156.276698 597.70776 147.280604 594.004635 137.585292 594.004635 C 127.886073 594.004635 117.479823 597.70776 109.370448 601.235104 C 101.257167 604.762448 95.44076 608.110104 89.886073 613.227292 C 84.331385 618.340573 79.038417 625.215573 79.655604 629.274167 C 80.272792 633.328854 86.800135 634.563229 90.764979 637.735104 Z " transform="matrix(1,0,0,-1,-78.757167,702.977292)"/>
<path style="fill:none;stroke-width:0.8;stroke-linecap:round;stroke-linejoin:round;stroke:rgb(0%,0%,0%);stroke-opacity:1;stroke-dasharray:1,3;stroke-miterlimit:10;" d="M 180.25326 647.356198 C 180.25326 672.352292 159.991542 692.61401 134.999354 692.61401 C 110.007167 692.61401 89.745448 672.352292 89.745448 647.356198 C 89.745448 622.36401 110.007167 602.102292 134.999354 602.102292 C 159.991542 602.102292 180.25326 622.36401 180.25326 647.356198 Z " transform="matrix(1,0,0,-1,-78.757167,702.977292)"/>
<g clip-path="url(#clip1)" clip-rule="nonzero">
<g clip-path="url(#clip2)" clip-rule="nonzero">
<path style=" stroke:none;fill-rule:evenodd;fill:rgb(71%,91%,100%);fill-opacity:1;" d="M 249.765625 44.519531 C 244.386719 45.84375 239.097656 46.195312 237.066406 44.082031 C 235.039062 41.964844 236.273438 37.378906 239.714844 33.234375 C 243.152344 29.089844 248.792969 25.386719 253.027344 19.921875 C 257.257812 14.457031 260.082031 7.226562 267.488281 3.609375 C 274.890625 -0.00390625 286.882812 -0.00390625 293.582031 3.609375 C 300.285156 7.226562 301.695312 14.457031 301.167969 20.628906 C 300.636719 26.800781 298.167969 31.914062 291.996094 34.734375 C 285.824219 37.554688 275.949219 38.085938 268.28125 39.496094 C 260.609375 40.90625 255.140625 43.199219 249.765625 44.519531 Z "/>
</g>
</g>
<g clip-path="url(#clip3)" clip-rule="nonzero">
<g clip-path="url(#clip4)" clip-rule="nonzero">
<path style="fill:none;stroke-width:0.8;stroke-linecap:round;stroke-linejoin:round;stroke:rgb(0%,0%,0%);stroke-opacity:1;stroke-miterlimit:10;" d="M 328.522792 658.45776 C 323.143885 657.133542 317.854823 656.781979 315.823573 658.89526 C 313.796229 661.012448 315.030604 665.598385 318.47201 669.742917 C 321.90951 673.887448 327.550135 677.590573 331.78451 683.055417 C 336.014979 688.52026 338.839198 695.750729 346.245448 699.367917 C 353.647792 702.981198 365.639979 702.981198 372.339198 699.367917 C 379.042323 695.750729 380.452479 688.52026 379.925135 682.348385 C 379.393885 676.17651 376.925135 671.063229 370.75326 668.242917 C 364.581385 665.422604 354.706385 664.891354 347.038417 663.481198 C 339.366542 662.071042 333.897792 659.778073 328.522792 658.45776 Z " transform="matrix(1,0,0,-1,-78.757167,702.977292)"/>
</g>
</g>
<g clip-path="url(#clip5)" clip-rule="nonzero">
<g clip-path="url(#clip6)" clip-rule="nonzero">
<path style=" stroke:none;fill-rule:evenodd;fill:rgb(100%,82.4%,61.6%);fill-opacity:1;" d="M 263.605469 53.777344 C 265.371094 49.546875 263.605469 44.609375 264.3125 39.847656 C 265.019531 35.085938 268.191406 30.503906 277.183594 26.976562 C 286.179688 23.449219 300.992188 20.980469 313.15625 20.980469 C 325.324219 20.980469 334.847656 23.449219 339.167969 27.769531 C 343.488281 32.089844 342.605469 38.261719 336.167969 42.40625 C 329.734375 46.550781 317.742188 48.664062 310.601562 51.488281 C 303.460938 54.308594 301.167969 57.835938 300.902344 61.976562 C 300.636719 66.121094 302.402344 70.882812 300.902344 74.9375 C 299.402344 78.996094 294.640625 82.34375 289.96875 82.785156 C 285.296875 83.226562 280.710938 80.757812 279.566406 77.40625 C 278.417969 74.058594 280.710938 69.824219 276.566406 67.621094 C 272.421875 65.417969 261.84375 65.242188 259.199219 63.390625 C 256.554688 61.539062 261.84375 58.011719 263.605469 53.777344 Z "/>
</g>
</g>
<g clip-path="url(#clip7)" clip-rule="nonzero">
<g clip-path="url(#clip8)" clip-rule="nonzero">
<path style="fill:none;stroke-width:0.8;stroke-linecap:round;stroke-linejoin:round;stroke:rgb(0%,0%,0%);stroke-opacity:1;stroke-miterlimit:10;" d="M 342.362635 649.199948 C 344.12826 653.430417 342.362635 658.367917 343.069667 663.129635 C 343.776698 667.891354 346.948573 672.473385 355.94076 676.000729 C 364.936854 679.528073 379.749354 681.996823 391.913417 681.996823 C 404.081385 681.996823 413.604823 679.528073 417.925135 675.20776 C 422.245448 670.887448 421.362635 664.715573 414.925135 660.571042 C 408.491542 656.42651 396.499354 654.313229 389.358729 651.48901 C 382.218104 648.668698 379.925135 645.141354 379.65951 641.000729 C 379.393885 636.856198 381.15951 632.094479 379.65951 628.039792 C 378.15951 623.981198 373.397792 620.633542 368.725917 620.192135 C 364.054042 619.750729 359.468104 622.219479 358.323573 625.571042 C 357.175135 628.918698 359.468104 633.153073 355.323573 635.356198 C 351.179042 637.559323 340.600917 637.735104 337.956385 639.586667 C 335.311854 641.438229 340.600917 644.965573 342.362635 649.199948 Z " transform="matrix(1,0,0,-1,-78.757167,702.977292)"/>
</g>
</g>
<g clip-path="url(#clip9)" clip-rule="nonzero">
<g clip-path="url(#clip10)" clip-rule="nonzero">
<path style=" stroke:none;fill-rule:evenodd;fill:rgb(89.4%,100%,69%);fill-opacity:1;" d="M 236.011719 65.242188 C 239.976562 62.066406 241.386719 56.953125 245.886719 54.308594 C 250.382812 51.664062 257.964844 51.488281 264.136719 52.984375 C 270.308594 54.484375 275.070312 57.660156 276.566406 62.15625 C 278.066406 66.652344 276.304688 72.46875 275.332031 76.4375 C 274.363281 80.40625 274.1875 82.523438 279.476562 84.460938 C 284.765625 86.402344 295.523438 88.164062 301.253906 87.195312 C 306.984375 86.226562 307.691406 82.523438 306.457031 78.820312 C 305.222656 75.117188 302.046875 71.414062 299.316406 67.972656 C 296.582031 64.535156 294.289062 61.359375 295.082031 59.070312 C 295.875 56.777344 299.753906 55.367188 303.546875 55.628906 C 307.339844 55.894531 311.042969 57.835938 314.039062 61.097656 C 317.039062 64.359375 319.328125 68.945312 320.652344 74.585938 C 321.972656 80.230469 322.328125 86.929688 320.476562 91.601562 C 318.625 96.277344 314.570312 98.921875 308.042969 102.09375 C 301.519531 105.269531 292.527344 108.972656 282.828125 108.972656 C 273.128906 108.972656 262.726562 105.269531 254.613281 101.742188 C 246.5 98.214844 240.683594 94.867188 235.128906 89.75 C 229.574219 84.636719 224.285156 77.761719 224.902344 73.703125 C 225.519531 69.648438 232.042969 68.414062 236.011719 65.242188 Z "/>
</g>
</g>
<g clip-path="url(#clip11)" clip-rule="nonzero">
<g clip-path="url(#clip12)" clip-rule="nonzero">
<path style="fill:none;stroke-width:0.8;stroke-linecap:round;stroke-linejoin:round;stroke:rgb(0%,0%,0%);stroke-opacity:1;stroke-miterlimit:10;" d="M 314.768885 637.735104 C 318.733729 640.910885 320.143885 646.024167 324.643885 648.668698 C 329.139979 651.313229 336.72201 651.48901 342.893885 649.992917 C 349.06576 648.492917 353.827479 645.317135 355.323573 640.821042 C 356.823573 636.324948 355.061854 630.508542 354.089198 626.539792 C 353.120448 622.571042 352.944667 620.453854 358.233729 618.516354 C 363.522792 616.574948 374.280604 614.813229 380.011073 615.781979 C 385.741542 616.750729 386.448573 620.453854 385.214198 624.156979 C 383.979823 627.860104 380.804042 631.563229 378.073573 635.004635 C 375.339198 638.442135 373.046229 641.617917 373.839198 643.906979 C 374.632167 646.199948 378.511073 647.610104 382.304042 647.348385 C 386.09701 647.08276 389.800135 645.141354 392.796229 641.879635 C 395.796229 638.617917 398.085292 634.031979 399.40951 628.391354 C 400.729823 622.746823 401.085292 616.047604 399.233729 611.375729 C 397.382167 606.699948 393.327479 604.055417 386.800135 600.883542 C 380.276698 597.70776 371.28451 594.004635 361.585292 594.004635 C 351.886073 594.004635 341.483729 597.70776 333.370448 601.235104 C 325.257167 604.762448 319.44076 608.110104 313.886073 613.227292 C 308.331385 618.340573 303.042323 625.215573 303.65951 629.274167 C 304.276698 633.328854 310.800135 634.563229 314.768885 637.735104 Z " transform="matrix(1,0,0,-1,-78.757167,702.977292)"/>
</g>
</g>
<path style="fill:none;stroke-width:0.8;stroke-linecap:round;stroke-linejoin:round;stroke:rgb(0%,0%,0%);stroke-opacity:1;stroke-miterlimit:10;" d="M 220.999354 649.356198 L 284.999354 649.356198 " transform="matrix(1,0,0,-1,-78.757167,702.977292)"/>
<path style="fill-rule:evenodd;fill:rgb(0%,0%,0%);fill-opacity:1;stroke-width:0.8;stroke-linecap:round;stroke-linejoin:round;stroke:rgb(0%,0%,0%);stroke-opacity:1;stroke-miterlimit:10;" d="M 284.999354 649.356198 L 277.999354 651.688229 L 277.999354 647.028073 Z " transform="matrix(1,0,0,-1,-78.757167,702.977292)"/>
</g>
</svg>
